<?xml version="1.0" encoding="UTF-8"?>
<svg width="28px" height="24px" viewBox="0 0 28 24" version="1.1" xmlns="http://www.w3.org/2000/svg" xmlns:xlink="http://www.w3.org/1999/xlink">
    <!-- Generator: Sketch 43.2 (39069) - http://www.bohemiancoding.com/sketch -->
    <title>ic_give_money</title>
    <desc>Created with Sketch.</desc>
    <defs></defs>
    <g id="Page-1" stroke="none" stroke-width="1" fill="none" fill-rule="evenodd">
        <g id="Dook_Map" transform="translate(-229.000000, -302.000000)" fill-rule="nonzero" fill="#768490">
            <g id="Group-9" transform="translate(0.000000, 80.000000)">
                <g id="Group-4" transform="translate(15.000000, 160.000000)">
                    <g id="ic_give_money" transform="translate(214.000000, 62.000000)">
                        <g id="Group">
                            <g transform="translate(13.000000, 0.000000)">
                                <path d="M7.85441489,6.91206349 C7.00851064,6.5747619 6.76412234,6.37079365 6.76412234,6.00246032 C6.76412234,5.70769841 6.98856383,5.36333333 7.62135638,5.36333333 C8.18106383,5.36333333 8.61031915,5.58285714 8.61414894,5.5847619 C8.65930851,5.60873016 8.7099734,5.62150794 8.76015957,5.62150794 C8.88263298,5.62150794 8.99098404,5.54777778 9.03590426,5.43365079 L9.18965426,5.04269841 C9.24319149,4.9002381 9.16196809,4.77611111 9.05840426,4.7315873 C8.71380319,4.58238095 8.04031915,4.46690476 8.03345745,4.46571429 C8.02260638,4.46380952 7.98486702,4.45579365 7.98486702,4.41190476 L7.98271277,3.8447619 C7.98271277,3.67396825 7.83933511,3.53492063 7.66332447,3.53492063 L7.3875,3.53492063 C7.21164894,3.53492063 7.06835106,3.67388889 7.06835106,3.84484127 L7.06906915,4.44111111 C7.06906915,4.4868254 7.01928191,4.50666667 7.00109043,4.51087302 C6.15095745,4.71230159 5.61965426,5.33174603 5.61965426,6.11309524 C5.61965426,7.08714286 6.42909574,7.52730159 7.30308511,7.85769841 C8.00178191,8.13055556 8.28678191,8.40722222 8.28678191,8.81301587 C8.28678191,9.25460317 7.8831383,9.56301587 7.30484043,9.56301587 C6.81103723,9.56301587 6.14273936,9.25166667 6.13611702,9.24849206 C6.09335106,9.22833333 6.04803191,9.2181746 6.00143617,9.2181746 C5.87425532,9.2181746 5.76351064,9.29468254 5.71922872,9.4131746 L5.57242021,9.80857143 C5.52023936,9.95619048 5.60058511,10.0760317 5.70343085,10.1293651 C6.11385638,10.3419841 6.90805851,10.4665873 6.94340426,10.4720635 C6.95289894,10.4734127 7.00125,10.4903175 7.00125,10.5342857 L7.00125,11.1279365 C7.00125,11.2987302 7.14462766,11.4377778 7.32071809,11.4377778 L7.60571809,11.4377778 C7.7818883,11.4377778 7.92526596,11.2988095 7.92526596,11.1279365 L7.92526596,10.5031746 C7.92526596,10.4447619 7.96859043,10.4396032 7.9775266,10.4374603 C8.88319149,10.2350794 9.44106383,9.57595238 9.44106383,8.74833333 C9.44082447,7.89825397 8.96625,7.34896825 7.85441489,6.91206349 Z" id="Shape"></path>
                                <path d="M7.49832447,0.0403968254 C3.36406915,0.0403968254 0.0128457447,3.37412698 0.0128457447,7.48626984 C0.0128457447,11.5984921 3.36406915,14.9323016 7.49832447,14.9323016 C11.6324202,14.9323016 14.9837234,11.5984921 14.9837234,7.48626984 C14.9837234,3.37412698 11.6324202,0.0403968254 7.49832447,0.0403968254 Z M7.49832447,13.2066667 C4.32215426,13.2066667 1.74757979,10.6454762 1.74757979,7.48634921 C1.74757979,4.32722222 4.32215426,1.76611111 7.49832447,1.76611111 C10.6743351,1.76611111 13.2488298,4.32722222 13.2488298,7.48634921 C13.2488298,10.6454762 10.6743351,13.2066667 7.49832447,13.2066667 Z" id="Shape"></path>
                            </g>
                            <g transform="translate(0.000000, 15.000000)">
                                <path d="M26.4803493,2.89026316 C24.9068282,3.75955263 22.7426254,4.56331579 20.584338,4.90215789 C18.6640901,5.20357895 15.051538,4.47663158 15.051538,3.61807895 C15.051538,3.29273684 18.2198761,4.41971053 20.1364169,3.90789474 C21.606062,3.51544737 21.3974423,2.13939474 20.598062,1.95789474 C19.8033352,1.77734211 15.1472901,0.0700263158 13.1585014,0.0111315789 C12.2216451,-0.0165789474 9.90868732,0.337263158 8.78947606,0.519710526 C8.40607324,0.582157895 8.16566761,0.575289474 8.14169014,0.942552632 C8.03032113,2.64939474 7.8108169,6.13981579 7.6911662,7.96302632 C7.68864225,8.00155263 7.74211831,8.51960526 8.1692169,8.15502632 C8.63669859,7.75602632 9.29237183,7.31376316 9.89882817,7.45144737 C10.8502761,7.66752632 19.0815662,9.17692105 20.2169465,8.91276316 C21.8411831,8.53484211 26.4390986,5.80744737 27.3206648,4.95971053 C28.6870648,3.64547368 27.6248789,2.25797368 26.4803493,2.89026316 Z" id="Shape"></path>
                                <path d="M5.87021972,0.453157895 L1.55806197,0.240473684 C1.22513803,0.224052632 0.885115493,0.475184211 0.802377465,0.798315789 L0.0182985915,7.92371053 C-0.0643605634,8.24692105 0.140552113,8.52197368 0.473633803,8.53484211 L5.25256338,8.53436842 C5.58572394,8.54723684 5.87897465,8.28560526 5.90452958,7.95292105 L6.42935211,1.08781579 C6.4547493,0.755210526 6.20314366,0.469578947 5.87021972,0.453157895 Z M3.33160563,7.59039474 C2.67309296,7.59039474 2.13935775,7.05607895 2.13935775,6.39702632 C2.13935775,5.73789474 2.67317183,5.20365789 3.33160563,5.20365789 C3.99003944,5.20365789 4.52385352,5.73797368 4.52385352,6.39702632 C4.52385352,7.05615789 3.99011831,7.59039474 3.33160563,7.59039474 Z" id="Shape"></path>
                            </g>
                        </g>
                    </g>
                </g>
            </g>
        </g>
    </g>
</svg>