<?xml version="1.0" encoding="UTF-8"?>
<svg width="24px" height="24px" viewBox="0 0 24 24" version="1.1" xmlns="http://www.w3.org/2000/svg" xmlns:xlink="http://www.w3.org/1999/xlink">
    <!-- Generator: Sketch 43.2 (39069) - http://www.bohemiancoding.com/sketch -->
    <title>ic_information</title>
    <desc>Created with Sketch.</desc>
    <defs></defs>
    <g id="Page-1" stroke="none" stroke-width="1" fill="none" fill-rule="evenodd">
        <g id="Dook_Map" transform="translate(-267.000000, -302.000000)" fill="#768490">
            <g id="Group-9" transform="translate(0.000000, 80.000000)">
                <g id="Group-4" transform="translate(15.000000, 160.000000)">
                    <g id="ic_information" transform="translate(252.000000, 62.000000)">
                        <path d="M12,22 C6.4771525,22 2,17.5228475 2,12 C2,6.4771525 6.4771525,2 12,2 C17.5228475,2 22,6.4771525 22,12 C22,17.5228475 17.5228475,22 12,22 Z M11.9575132,20.8746618 C16.8397104,20.8746618 20.7975133,16.9168589 20.7975133,12.0346616 C20.7975133,7.15246434 16.8397104,3.19466146 11.9575132,3.19466146 C7.0753159,3.19466146 3.11751302,7.15246434 3.11751302,12.0346616 C3.11751302,16.9168589 7.0753159,20.8746618 11.9575132,20.8746618 Z M10.1818182,9.72727273 L12.9090909,9.72727273 L12.9090909,17 L13.8181818,17 L13.8181818,17.4545455 L10.1818182,17.4545455 L10.1818182,17 L11.0909091,17 L11.0909091,10.1818182 L10.1818182,10.1818182 L10.1818182,9.72727273 Z M11.7727273,8.36363636 C11.145131,8.36363636 10.6363636,7.85486903 10.6363636,7.22727273 C10.6363636,6.59967642 11.145131,6.09090909 11.7727273,6.09090909 C12.4003236,6.09090909 12.9090909,6.59967642 12.9090909,7.22727273 C12.9090909,7.85486903 12.4003236,8.36363636 11.7727273,8.36363636 Z"></path>
                    </g>
                </g>
            </g>
        </g>
    </g>
</svg>