<?xml version="1.0" encoding="UTF-8"?>
<svg width="24px" height="24px" viewBox="0 0 24 24" version="1.1" xmlns="http://www.w3.org/2000/svg" xmlns:xlink="http://www.w3.org/1999/xlink">
    <!-- Generator: Sketch 43.2 (39069) - http://www.bohemiancoding.com/sketch -->
    <title>ic_watch</title>
    <desc>Created with Sketch.</desc>
    <defs></defs>
    <g id="Page-1" stroke="none" stroke-width="1" fill="none" fill-rule="evenodd">
        <g id="Dook_Map" transform="translate(-145.000000, -240.000000)" stroke="#697986" fill-rule="nonzero" stroke-width="0.300000012" fill="#697986">
            <g id="Group-9" transform="translate(0.000000, 80.000000)">
                <g id="Group-4" transform="translate(15.000000, 160.000000)">
                    <g id="ic_watch" transform="translate(130.000000, 0.000000)">
                        <g transform="translate(5.299988, 5.000000)" id="Shape">
                            <path d="M6.4607141,14 C8.1866159,14 9.80892349,13.3400312 11.0291073,12.1415 C12.2495139,10.943625 12.9214282,9.3506875 12.9214282,7.65625 C12.9214282,5.9618125 12.2492912,4.368875 11.0288845,3.171 C9.86172312,2.02409375 8.32563264,1.37221875 6.68349735,1.31775 L6.68349735,0.4375 L7.79741357,0.4375 L7.79741357,0 L6.4607141,0 L6.23793086,0 L5.12401463,0 L5.12401463,0.4375 L6.23793086,0.4375 L6.23793086,1.31775 C4.59579556,1.372 3.05970509,2.02409375 1.89232088,3.17078125 C0.67213705,4.36865625 0,5.96159375 0,7.65625 C0,9.35090625 0.67213705,10.943625 1.89232088,12.1415 C3.11250471,13.3400312 4.7348123,14 6.4607141,14 Z M2.20733639,3.48009375 C3.29073131,2.41609375 4.71476181,1.80928125 6.23793086,1.75525 L6.23793086,2.40625 L6.68349735,2.40625 L6.68349735,1.75525 C8.20666639,1.8095 9.63069689,2.41609375 10.7140918,3.48009375 C11.7974867,4.54365625 12.4154875,5.94190625 12.4705149,7.4375 L11.807512,7.4375 L11.807512,7.875 L12.4705149,7.875 C12.4152647,9.370375 11.7974867,10.768625 10.7140918,11.8321875 C9.63069689,12.8961875 8.20666639,13.503 6.68349735,13.55725 L6.68349735,12.90625 L6.23793086,12.90625 L6.23793086,13.55725 C4.71476181,13.503 3.29073131,12.8964062 2.20733639,11.8321875 C1.12394147,10.768625 0.506163532,9.370375 0.450913288,7.875 L1.11391622,7.875 L1.11391622,7.4375 L0.450913288,7.4375 C0.505940749,5.94190625 1.12394147,4.54365625 2.20733639,3.48009375 Z"></path>
                            <polygon points="2.353359 4.55461135 1.81173464 4.00709267 2.08245109 3.73333333 2.62407545 4.28085201"></polygon>
                            <polygon points="10.7283588 12.0216652 10.1867344 11.4737593 10.4574509 11.2 10.9990752 11.7477123"></polygon>
                            <polygon points="10.4574509 4.55461135 10.1867344 4.28085201 10.7281673 3.73333333 10.9988838 4.00709267"></polygon>
                            <polygon points="2.08245109 12.0216652 1.81173464 11.7479059 2.35355046 11.2 2.62426691 11.4737593"></polygon>
                            <path d="M6.4607141,8.4 C6.96972608,8.4 7.38367326,8.02791111 7.38367326,7.57037037 C7.38367326,7.18500741 7.08832633,6.8629037 6.69145389,6.77019259 L6.69145389,4.66666667 L6.22997431,4.66666667 L6.22997431,6.77019259 C5.83310187,6.8629037 5.53775494,7.18500741 5.53775494,7.57037037 C5.53775494,8.02791111 5.95170213,8.4 6.4607141,8.4 Z M6.4607141,7.15555556 C6.71522009,7.15555556 6.92219368,7.3416 6.92219368,7.57037037 C6.92219368,7.79914074 6.71522009,7.98518519 6.4607141,7.98518519 C6.20620811,7.98518519 5.99923452,7.79914074 5.99923452,7.57037037 C5.99923452,7.3416 6.20620811,7.15555556 6.4607141,7.15555556 Z"></path>
                        </g>
                    </g>
                </g>
            </g>
        </g>
    </g>
</svg>